<svg width="40" height="40" viewBox="0 0 40 40" fill="none" xmlns="http://www.w3.org/2000/svg">
<path d="M40 0H6V3H40V0Z" fill="white"/>
<path d="M3 0H0V3H3V0Z" fill="white"/>
<path d="M0 40L34 40V37L0 37V40Z" fill="white"/>
<path d="M37 40H40V37H37V40Z" fill="white"/>
<path d="M40 34V2H37V34H40Z" fill="white"/>
<path d="M3 38L3 6H0L0 38H3Z" fill="white"/>
<path d="M29.316 26H32.466L27.372 19.628L32.142 13.994H28.992L24.744 19.358V13.994H22.188V26H24.744V22.31L25.68 21.194L29.316 26Z" fill="white"/>
<path d="M15.316 26H18.466L13.372 19.628L18.142 13.994H14.992L10.744 19.358V13.994H8.188V26H10.744V22.31L11.68 21.194L15.316 26Z" fill="white"/>
</svg>
