<svg width="91" height="44" viewBox="0 0 91 44" fill="none" xmlns="http://www.w3.org/2000/svg">
<g filter="url(#filter0_d_1935_2047)">
<path d="M6.52832 5.16676L10.1908 15.748C10.3471 16.2043 10.9971 16.1918 11.1408 15.7293L12.6158 10.9418C12.6381 10.8635 12.6803 10.7924 12.7384 10.7354C12.7965 10.6784 12.8684 10.6375 12.9471 10.6168L17.7283 9.14176C18.1908 8.99801 18.2033 8.34801 17.7471 8.19176L7.16581 4.52926C7.07691 4.49802 6.98099 4.49253 6.8891 4.51344C6.79722 4.53434 6.71311 4.58079 6.64648 4.64742C6.57984 4.71406 6.5334 4.79816 6.51249 4.89005C6.49158 4.98193 6.49707 5.07786 6.52832 5.16676V5.16676Z" fill="#7627F6"/>
<path fill-rule="evenodd" clip-rule="evenodd" d="M7.33026 4.05611C7.33069 4.05626 7.33113 4.05642 7.33157 4.05657L17.909 7.71775C17.9093 7.71784 17.9095 7.71793 17.9098 7.71802C18.8334 8.03504 18.79 9.33438 17.8767 9.61825L17.8757 9.61857L13.0944 11.0936C13.0935 11.0939 13.0926 11.0941 13.0916 11.0944L11.6186 15.8755L11.6183 15.8767C11.3344 16.79 10.035 16.8334 9.71802 15.9098C9.71793 15.9095 9.71784 15.9093 9.71775 15.909L6.05657 5.33157C6.05642 5.33113 6.05626 5.33069 6.05611 5.33026C5.99403 5.15282 5.98321 4.96147 6.02492 4.77815C6.06673 4.59437 6.15963 4.42616 6.29289 4.29289C6.42616 4.15963 6.59437 4.06673 6.77815 4.02492C6.96147 3.98321 7.15282 3.99403 7.33026 4.05611ZM17.5818 8.66269L7 5.00001L7.00079 5.00224L10.6627 15.5818C10.6629 15.5813 10.663 15.5808 10.6632 15.5802C10.6632 15.5801 10.6632 15.5804 10.6632 15.5802L12.1366 10.7978C12.1831 10.6385 12.2697 10.4938 12.3882 10.3775C12.5053 10.2626 12.6497 10.1793 12.8077 10.1355L17.5799 8.66332C17.58 8.66329 17.5798 8.66334 17.5799 8.66332C17.5805 8.66313 17.5813 8.66286 17.5818 8.66269Z" fill="white"/>
</g>
<g filter="url(#filter1_d_1935_2047)">
<rect x="19" y="16" width="66" height="20" rx="2" fill="#7627F6"/>
<path d="M33.3025 30L30.8425 26.832L33.2545 24.204H31.6945L29.1385 27V21.996H27.8785V30H29.1385V28.44L29.9425 27.612L31.7185 30H33.3025ZM38.9949 30V26.16C38.9949 24.6 37.8669 24.06 36.5829 24.06C35.6589 24.06 34.8189 24.36 34.1469 24.996L34.6629 25.872C35.1669 25.38 35.7309 25.14 36.3789 25.14C37.1829 25.14 37.7349 25.548 37.7349 26.22V27.084C37.3149 26.592 36.6429 26.34 35.8629 26.34C34.9149 26.34 33.8469 26.892 33.8469 28.224C33.8469 29.508 34.9149 30.144 35.8629 30.144C36.6309 30.144 37.3029 29.868 37.7349 29.376V30H38.9949ZM37.7349 28.68C37.4469 29.076 36.9069 29.28 36.3549 29.28C35.6469 29.28 35.1189 28.872 35.1189 28.248C35.1189 27.612 35.6469 27.204 36.3549 27.204C36.9069 27.204 37.4469 27.408 37.7349 27.804V28.68ZM42.3685 30.144C42.9565 30.144 43.3285 29.988 43.5565 29.772L43.2565 28.824C43.1605 28.932 42.9325 29.028 42.6925 29.028C42.3325 29.028 42.1405 28.74 42.1405 28.344V25.308H43.3165V24.204H42.1405V22.62H40.8805V24.204H39.9205V25.308H40.8805V28.656C40.8805 29.616 41.3965 30.144 42.3685 30.144ZM44.1005 27.096C44.1005 28.932 45.3965 30.144 47.1365 30.144C48.0605 30.144 48.9125 29.856 49.4885 29.304L48.9125 28.476C48.5045 28.884 47.8325 29.112 47.2685 29.112C46.1765 29.112 45.5165 28.392 45.4205 27.516H49.8965V27.216C49.8965 25.392 48.7805 24.06 47.0405 24.06C45.3245 24.06 44.1005 25.416 44.1005 27.096ZM47.0405 25.092C48.1805 25.092 48.6485 25.944 48.6725 26.628H45.4085C45.4685 25.92 45.9605 25.092 47.0405 25.092ZM52.4002 30V26.052C52.6522 25.644 53.3602 25.284 53.8882 25.284C54.0442 25.284 54.1762 25.296 54.2842 25.32V24.072C53.5282 24.072 52.8322 24.504 52.4002 25.056V24.204H51.1402V30H52.4002ZM55.9244 23.244C56.3564 23.244 56.7044 22.896 56.7044 22.464C56.7044 22.032 56.3564 21.684 55.9244 21.684C55.5044 21.684 55.1444 22.032 55.1444 22.464C55.1444 22.896 55.5044 23.244 55.9244 23.244ZM56.5604 30V24.204H55.3004V30H56.5604ZM63.3669 30V25.92C63.3669 24.732 62.7429 24.06 61.4949 24.06C60.5829 24.06 59.8389 24.54 59.4549 24.996V24.204H58.1949V30H59.4549V25.956C59.7429 25.56 60.2949 25.176 60.9429 25.176C61.6509 25.176 62.1069 25.476 62.1069 26.376V30H63.3669ZM69.8035 30V26.16C69.8035 24.6 68.6755 24.06 67.3915 24.06C66.4675 24.06 65.6275 24.36 64.9555 24.996L65.4715 25.872C65.9755 25.38 66.5395 25.14 67.1875 25.14C67.9915 25.14 68.5435 25.548 68.5435 26.22V27.084C68.1235 26.592 67.4515 26.34 66.6715 26.34C65.7235 26.34 64.6555 26.892 64.6555 28.224C64.6555 29.508 65.7235 30.144 66.6715 30.144C67.4395 30.144 68.1115 29.868 68.5435 29.376V30H69.8035ZM68.5435 28.68C68.2555 29.076 67.7155 29.28 67.1635 29.28C66.4555 29.28 65.9275 28.872 65.9275 28.248C65.9275 27.612 66.4555 27.204 67.1635 27.204C67.7155 27.204 68.2555 27.408 68.5435 27.804V28.68ZM76.8611 30L74.4011 26.832L76.8131 24.204H75.2531L72.6971 27V21.996H71.4371V30H72.6971V28.44L73.5011 27.612L75.2771 30H76.8611Z" fill="#FCFCFC"/>
</g>
<defs>
<filter id="filter0_d_1935_2047" x="0" y="0" width="24.5824" height="24.582" filterUnits="userSpaceOnUse" color-interpolation-filters="sRGB">
<feFlood flood-opacity="0" result="BackgroundImageFix"/>
<feColorMatrix in="SourceAlpha" type="matrix" values="0 0 0 0 0 0 0 0 0 0 0 0 0 0 0 0 0 0 127 0" result="hardAlpha"/>
<feOffset dy="2"/>
<feGaussianBlur stdDeviation="3"/>
<feComposite in2="hardAlpha" operator="out"/>
<feColorMatrix type="matrix" values="0 0 0 0 0 0 0 0 0 0 0 0 0 0 0 0 0 0 0.3 0"/>
<feBlend mode="normal" in2="BackgroundImageFix" result="effect1_dropShadow_1935_2047"/>
<feBlend mode="normal" in="SourceGraphic" in2="effect1_dropShadow_1935_2047" result="shape"/>
</filter>
<filter id="filter1_d_1935_2047" x="13" y="12" width="78" height="32" filterUnits="userSpaceOnUse" color-interpolation-filters="sRGB">
<feFlood flood-opacity="0" result="BackgroundImageFix"/>
<feColorMatrix in="SourceAlpha" type="matrix" values="0 0 0 0 0 0 0 0 0 0 0 0 0 0 0 0 0 0 127 0" result="hardAlpha"/>
<feOffset dy="2"/>
<feGaussianBlur stdDeviation="3"/>
<feComposite in2="hardAlpha" operator="out"/>
<feColorMatrix type="matrix" values="0 0 0 0 0 0 0 0 0 0 0 0 0 0 0 0 0 0 0.3 0"/>
<feBlend mode="normal" in2="BackgroundImageFix" result="effect1_dropShadow_1935_2047"/>
<feBlend mode="normal" in="SourceGraphic" in2="effect1_dropShadow_1935_2047" result="shape"/>
</filter>
</defs>
</svg>
